<svg width="458" height="473" viewBox="0 0 458 473" fill="none" xmlns="http://www.w3.org/2000/svg">
<g filter="url(#filter0_d_236_138)">
<mask id="path-1-inside-1_236_138" fill="white">
<path d="M358.218 393.113C356.198 395.518 354.008 397.122 352.421 398.11C359.929 396.977 366.215 403.52 366.215 410.192C366.215 416.861 360.039 422.27 352.421 422.27C347.588 422.27 343.334 420.093 340.871 416.794C340.99 417.123 353.967 453.568 335.127 464.999C335.127 464.999 361.352 465.756 391.038 429.464C420.725 393.168 441.012 412.13 441.012 412.13V357.56C441.012 357.56 445.217 348.099 453.216 346.004C453.216 346.004 443.611 343.549 441.012 333.474V255.36C441.012 255.36 445.095 238.567 454 235.967C454 235.967 442.496 234.125 441.012 226.108C439.528 218.091 441.012 164.246 441.012 164.246C441.012 164.246 459.8 148.506 434.937 129.654C434.937 129.654 446.703 156.338 422.211 155.47C422.211 155.47 431.557 149.32 430.691 132.527C430.691 132.527 421.14 145.13 411.573 143.745L411.582 143.712C410.555 143.568 409.576 143.295 408.666 142.916C408.647 142.909 408.629 142.901 408.61 142.892C404.992 141.359 402.499 138.112 402.499 134.356C402.499 129.121 407.344 124.876 413.322 124.876C414.539 124.876 415.707 125.052 416.797 125.376C418.728 120.15 419.157 107.568 389.925 92.6324C389.925 92.6324 369.515 80.9324 367.66 72.6989C367.66 72.6989 367.755 101.517 378.779 116.467C389.802 131.419 354.301 136.512 360.609 112.893C360.609 112.893 350.107 127.358 361.722 137.377V159.479C361.722 159.479 361.722 164.679 354.053 168.905C354.053 168.905 362.712 175.622 361.475 178.655C360.238 181.689 361.475 218.633 361.475 218.633C361.475 218.633 373.293 223.4 386.228 233.388C387.214 234.148 388.207 234.94 389.202 235.763C396.432 241.739 403.753 249.33 409.346 258.61V283.745C409.346 283.745 409.222 288.404 397.594 289.487C397.594 289.487 409.346 292.413 409.346 303.787V393.709C409.346 393.709 398.707 392.085 386.585 401.296V257.852C386.585 257.852 385.817 256.962 384.39 255.551C383.601 254.767 382.608 253.824 381.432 252.783C377.12 248.961 370.352 243.829 362.093 240.517C353.455 237.052 347.2 235.16 347.007 235.102C347.315 235.293 362.093 244.442 362.093 256.985V386.343C361.506 388.033 360.392 390.524 358.218 393.113ZM401.745 170.652L404.405 173.232C407.644 176.69 409.346 179.738 409.346 179.738V221.45C404.706 213.734 399.936 209.847 395.968 207.932C394.847 207.39 393.791 207.007 392.819 206.738C389.067 205.704 386.585 206.39 386.585 206.39V163.595C392.882 164.25 397.982 167.345 401.745 170.652ZM268.617 270.745L270.744 270.739L270.818 210.168C270.791 202.124 270.808 192.57 270.851 182.866C270.959 157.818 271.224 131.787 271.262 128.24C274.363 125.877 276.869 122.874 283.121 120.474C288.031 118.59 292.518 117.622 296.035 117.106V161.635C296.035 161.635 293.56 172.033 287.006 176.909C287.006 176.909 297.149 177.668 296.035 189.259L296.534 286.667C296.534 286.667 266.03 284.181 243.394 304.007C243.394 304.007 243.571 323.637 244.034 333.723C244.034 333.723 289.004 303.558 296.056 323.061L295.5 354.495C288.501 359.386 282.738 370.978 282.711 371.366C284.591 369.656 287.23 368.594 290.156 368.594C294.332 368.594 297.929 370.76 299.566 373.88C299.588 373.884 299.596 373.886 299.596 373.886C305.509 381.032 285.077 414.107 284.904 414.389C285.246 414.268 331.739 397.577 325.824 360.447C330.09 360.447 332.318 357.955 333.476 355.465C334.637 352.972 334.731 350.48 334.731 350.48C325.7 351.671 325.824 343.979 325.824 343.979V321.661C325.824 319.818 326.443 222.206 325.824 210.938C325.206 199.672 337.074 195.227 337.074 195.227C327.67 192.519 325.824 181.361 325.824 181.361V80.3884C325.824 80.3884 347.842 61.3194 330.278 40.0843C330.278 40.0843 330.402 57.0955 317.412 56.8766C304.423 56.6601 297.125 43.3362 312.092 34.2341C312.092 34.2341 304.299 22.3177 282.654 18.9591C261.007 15.5989 259.521 0 259.521 0C259.521 0 260.006 29.1282 278.213 33.5355L278.219 33.5371C280.886 34.0153 282.895 36.0825 282.895 38.5608C282.895 41.3941 280.272 43.6892 277.039 43.6892C274.591 43.6892 272.163 42.8517 270.689 40.9473C270.576 41.1623 269.786 42.7172 270.689 44.3117C271.268 45.3355 272.609 45.6254 272.609 45.9937C272.609 47.6758 278.37 51.0398 278.37 51.0398C279 51.3634 279.536 51.7145 279.992 52.0961C286.268 56.1439 290.339 62.6613 290.339 70.0119C290.339 82.2948 278.97 92.2527 264.946 92.2527C259.445 92.2527 254.703 90.3836 250.192 88.1132C250.223 87.9539 244.248 85.1508 242.967 84.2161L243.014 185.585C243.338 186.891 247.875 190.187 251.076 192.242C254.18 194.236 258.974 195.979 260.411 196.41C260.411 196.41 243.217 200.881 243.217 214.857C243.217 230.369 241.224 285.504 241.26 285.504C241.941 284.498 249.721 272.159 268.617 270.745ZM216.742 285.504C216.777 285.504 214.784 230.369 214.784 214.857C214.784 200.881 197.59 196.41 197.59 196.41C199.028 195.979 203.821 194.236 206.926 192.242C210.126 190.187 214.663 186.891 214.987 185.585L215.034 84.2161C213.754 85.1508 207.779 87.9539 207.809 88.1132C203.298 90.3836 198.556 92.2527 193.056 92.2527C179.031 92.2527 167.662 82.2948 167.662 70.0119C167.662 62.6613 171.733 56.1439 178.009 52.0961C178.466 51.7145 179.001 51.3634 179.631 51.0398C179.631 51.0398 185.392 47.6758 185.392 45.9937C185.392 45.6254 186.732 45.3355 187.313 44.3117C188.215 42.7172 187.426 41.1623 187.313 40.9473C185.839 42.8517 183.41 43.6892 180.962 43.6892C177.729 43.6892 175.107 41.3941 175.107 38.5608C175.107 36.0825 177.115 34.0153 179.782 33.5371L179.789 33.5355C197.995 29.1282 198.479 0 198.479 0C198.479 0 196.994 15.5989 175.348 18.9591C153.702 22.3177 145.909 34.2341 145.909 34.2341C160.876 43.3362 153.578 56.6601 140.589 56.8766C127.601 57.0955 127.724 40.0843 127.724 40.0843C110.16 61.3194 132.178 80.3884 132.178 80.3884V181.361C132.178 181.361 130.332 192.519 120.928 195.227C120.928 195.227 132.796 199.672 132.178 210.938C131.558 222.206 132.178 319.818 132.178 321.661V343.979C132.178 343.979 132.301 351.671 123.271 350.48C123.271 350.48 123.364 352.972 124.525 355.465C125.684 357.955 127.911 360.447 132.178 360.447C126.262 397.577 172.755 414.268 173.097 414.389C172.924 414.107 152.492 381.032 158.406 373.886C158.406 373.886 158.414 373.884 158.435 373.88C160.072 370.76 163.67 368.594 167.845 368.594C170.771 368.594 173.411 369.656 175.291 371.366C175.263 370.978 169.501 359.386 162.502 354.495L161.945 323.061C168.998 303.558 213.967 333.723 213.967 333.723C214.43 323.637 214.607 304.007 214.607 304.007C191.971 284.181 161.467 286.667 161.467 286.667L161.967 189.259C160.853 177.668 170.995 176.909 170.995 176.909C164.442 172.033 161.967 161.635 161.967 161.635V117.106C165.483 117.622 169.971 118.59 174.881 120.474C181.133 122.874 183.638 125.877 186.739 128.24C186.778 131.787 187.042 157.818 187.151 182.866C187.193 192.57 187.211 202.124 187.183 210.168L187.258 270.739L189.385 270.745C208.28 272.159 216.06 284.498 216.742 285.504ZM95.9079 386.343V256.985C95.9079 244.442 110.687 235.293 110.995 235.102C110.801 235.16 104.546 237.052 95.9079 240.517C87.6493 243.829 80.8812 248.961 76.5691 252.783C75.3935 253.824 74.4001 254.767 73.6101 255.551C72.185 256.962 71.416 257.852 71.416 257.852V401.296C59.2942 392.085 48.6552 393.709 48.6552 393.709V303.787C48.6552 292.413 60.4071 289.487 60.4071 289.487C48.7797 288.404 48.6552 283.745 48.6552 283.745V258.61C54.2472 249.33 61.5697 241.739 68.7996 235.763C69.7948 234.94 70.7877 234.148 71.773 233.388C84.7082 223.4 96.5264 218.633 96.5264 218.633C96.5264 218.633 97.7634 181.689 96.5264 178.655C95.2894 175.622 103.949 168.905 103.949 168.905C96.2801 164.679 96.2801 159.479 96.2801 159.479V137.377C107.894 127.358 97.3921 112.893 97.3921 112.893C103.7 136.512 68.199 131.419 79.2227 116.467C90.246 101.517 90.3414 72.6989 90.3414 72.6989C88.4859 80.9324 68.0763 92.6324 68.0763 92.6324C38.8442 107.568 39.2736 120.15 41.2039 125.376C42.294 125.052 43.4634 124.876 44.6792 124.876C50.6575 124.876 55.5021 129.121 55.5021 134.356C55.5021 138.112 53.0084 141.359 49.3914 142.892C49.3722 142.901 49.3543 142.909 49.335 142.916C48.4259 143.295 47.4468 143.568 46.4199 143.712L46.428 143.745C36.8611 145.13 27.3104 132.527 27.3104 132.527C26.4447 149.32 35.7903 155.47 35.7903 155.47C11.2981 156.338 23.0649 129.654 23.0649 129.654C-1.79724 148.506 16.9894 164.246 16.9894 164.246C16.9894 164.246 18.4736 218.091 16.9894 226.108C15.5053 234.125 4 235.967 4 235.967C12.9068 238.567 16.9894 255.36 16.9894 255.36V333.474C14.391 343.549 4.78392 346.004 4.78392 346.004C12.7842 348.099 16.9894 357.56 16.9894 357.56V412.13C16.9894 412.13 37.2763 393.168 66.9634 429.464C96.6491 465.756 122.875 464.999 122.875 464.999C104.035 453.568 117.013 417.123 117.13 416.794C114.667 420.093 110.413 422.27 105.58 422.27C97.9623 422.27 91.7871 416.861 91.7871 410.192C91.7871 403.52 98.0729 396.977 105.58 398.11C103.994 397.122 101.804 395.518 99.7837 393.113C97.6093 390.524 96.4951 388.033 95.9079 386.343ZM71.416 163.595V206.39C71.416 206.39 68.934 205.704 65.1822 206.738C64.2099 207.007 63.1534 207.39 62.0333 207.932C58.0652 209.847 53.295 213.734 48.6552 221.45V179.738C48.6552 179.738 50.3575 176.69 53.5964 173.232L56.2563 170.652C60.0192 167.345 65.1191 164.25 71.416 163.595Z"/>
</mask>
<path d="M358.218 393.113C356.198 395.518 354.008 397.122 352.421 398.11C359.929 396.977 366.215 403.52 366.215 410.192C366.215 416.861 360.039 422.27 352.421 422.27C347.588 422.27 343.334 420.093 340.871 416.794C340.99 417.123 353.967 453.568 335.127 464.999C335.127 464.999 361.352 465.756 391.038 429.464C420.725 393.168 441.012 412.13 441.012 412.13V357.56C441.012 357.56 445.217 348.099 453.216 346.004C453.216 346.004 443.611 343.549 441.012 333.474V255.36C441.012 255.36 445.095 238.567 454 235.967C454 235.967 442.496 234.125 441.012 226.108C439.528 218.091 441.012 164.246 441.012 164.246C441.012 164.246 459.8 148.506 434.937 129.654C434.937 129.654 446.703 156.338 422.211 155.47C422.211 155.47 431.557 149.32 430.691 132.527C430.691 132.527 421.14 145.13 411.573 143.745L411.582 143.712C410.555 143.568 409.576 143.295 408.666 142.916C408.647 142.909 408.629 142.901 408.61 142.892C404.992 141.359 402.499 138.112 402.499 134.356C402.499 129.121 407.344 124.876 413.322 124.876C414.539 124.876 415.707 125.052 416.797 125.376C418.728 120.15 419.157 107.568 389.925 92.6324C389.925 92.6324 369.515 80.9324 367.66 72.6989C367.66 72.6989 367.755 101.517 378.779 116.467C389.802 131.419 354.301 136.512 360.609 112.893C360.609 112.893 350.107 127.358 361.722 137.377V159.479C361.722 159.479 361.722 164.679 354.053 168.905C354.053 168.905 362.712 175.622 361.475 178.655C360.238 181.689 361.475 218.633 361.475 218.633C361.475 218.633 373.293 223.4 386.228 233.388C387.214 234.148 388.207 234.94 389.202 235.763C396.432 241.739 403.753 249.33 409.346 258.61V283.745C409.346 283.745 409.222 288.404 397.594 289.487C397.594 289.487 409.346 292.413 409.346 303.787V393.709C409.346 393.709 398.707 392.085 386.585 401.296V257.852C386.585 257.852 385.817 256.962 384.39 255.551C383.601 254.767 382.608 253.824 381.432 252.783C377.12 248.961 370.352 243.829 362.093 240.517C353.455 237.052 347.2 235.16 347.007 235.102C347.315 235.293 362.093 244.442 362.093 256.985V386.343C361.506 388.033 360.392 390.524 358.218 393.113ZM401.745 170.652L404.405 173.232C407.644 176.69 409.346 179.738 409.346 179.738V221.45C404.706 213.734 399.936 209.847 395.968 207.932C394.847 207.39 393.791 207.007 392.819 206.738C389.067 205.704 386.585 206.39 386.585 206.39V163.595C392.882 164.25 397.982 167.345 401.745 170.652ZM268.617 270.745L270.744 270.739L270.818 210.168C270.791 202.124 270.808 192.57 270.851 182.866C270.959 157.818 271.224 131.787 271.262 128.24C274.363 125.877 276.869 122.874 283.121 120.474C288.031 118.59 292.518 117.622 296.035 117.106V161.635C296.035 161.635 293.56 172.033 287.006 176.909C287.006 176.909 297.149 177.668 296.035 189.259L296.534 286.667C296.534 286.667 266.03 284.181 243.394 304.007C243.394 304.007 243.571 323.637 244.034 333.723C244.034 333.723 289.004 303.558 296.056 323.061L295.5 354.495C288.501 359.386 282.738 370.978 282.711 371.366C284.591 369.656 287.23 368.594 290.156 368.594C294.332 368.594 297.929 370.76 299.566 373.88C299.588 373.884 299.596 373.886 299.596 373.886C305.509 381.032 285.077 414.107 284.904 414.389C285.246 414.268 331.739 397.577 325.824 360.447C330.09 360.447 332.318 357.955 333.476 355.465C334.637 352.972 334.731 350.48 334.731 350.48C325.7 351.671 325.824 343.979 325.824 343.979V321.661C325.824 319.818 326.443 222.206 325.824 210.938C325.206 199.672 337.074 195.227 337.074 195.227C327.67 192.519 325.824 181.361 325.824 181.361V80.3884C325.824 80.3884 347.842 61.3194 330.278 40.0843C330.278 40.0843 330.402 57.0955 317.412 56.8766C304.423 56.6601 297.125 43.3362 312.092 34.2341C312.092 34.2341 304.299 22.3177 282.654 18.9591C261.007 15.5989 259.521 0 259.521 0C259.521 0 260.006 29.1282 278.213 33.5355L278.219 33.5371C280.886 34.0153 282.895 36.0825 282.895 38.5608C282.895 41.3941 280.272 43.6892 277.039 43.6892C274.591 43.6892 272.163 42.8517 270.689 40.9473C270.576 41.1623 269.786 42.7172 270.689 44.3117C271.268 45.3355 272.609 45.6254 272.609 45.9937C272.609 47.6758 278.37 51.0398 278.37 51.0398C279 51.3634 279.536 51.7145 279.992 52.0961C286.268 56.1439 290.339 62.6613 290.339 70.0119C290.339 82.2948 278.97 92.2527 264.946 92.2527C259.445 92.2527 254.703 90.3836 250.192 88.1132C250.223 87.9539 244.248 85.1508 242.967 84.2161L243.014 185.585C243.338 186.891 247.875 190.187 251.076 192.242C254.18 194.236 258.974 195.979 260.411 196.41C260.411 196.41 243.217 200.881 243.217 214.857C243.217 230.369 241.224 285.504 241.26 285.504C241.941 284.498 249.721 272.159 268.617 270.745ZM216.742 285.504C216.777 285.504 214.784 230.369 214.784 214.857C214.784 200.881 197.59 196.41 197.59 196.41C199.028 195.979 203.821 194.236 206.926 192.242C210.126 190.187 214.663 186.891 214.987 185.585L215.034 84.2161C213.754 85.1508 207.779 87.9539 207.809 88.1132C203.298 90.3836 198.556 92.2527 193.056 92.2527C179.031 92.2527 167.662 82.2948 167.662 70.0119C167.662 62.6613 171.733 56.1439 178.009 52.0961C178.466 51.7145 179.001 51.3634 179.631 51.0398C179.631 51.0398 185.392 47.6758 185.392 45.9937C185.392 45.6254 186.732 45.3355 187.313 44.3117C188.215 42.7172 187.426 41.1623 187.313 40.9473C185.839 42.8517 183.41 43.6892 180.962 43.6892C177.729 43.6892 175.107 41.3941 175.107 38.5608C175.107 36.0825 177.115 34.0153 179.782 33.5371L179.789 33.5355C197.995 29.1282 198.479 0 198.479 0C198.479 0 196.994 15.5989 175.348 18.9591C153.702 22.3177 145.909 34.2341 145.909 34.2341C160.876 43.3362 153.578 56.6601 140.589 56.8766C127.601 57.0955 127.724 40.0843 127.724 40.0843C110.16 61.3194 132.178 80.3884 132.178 80.3884V181.361C132.178 181.361 130.332 192.519 120.928 195.227C120.928 195.227 132.796 199.672 132.178 210.938C131.558 222.206 132.178 319.818 132.178 321.661V343.979C132.178 343.979 132.301 351.671 123.271 350.48C123.271 350.48 123.364 352.972 124.525 355.465C125.684 357.955 127.911 360.447 132.178 360.447C126.262 397.577 172.755 414.268 173.097 414.389C172.924 414.107 152.492 381.032 158.406 373.886C158.406 373.886 158.414 373.884 158.435 373.88C160.072 370.76 163.67 368.594 167.845 368.594C170.771 368.594 173.411 369.656 175.291 371.366C175.263 370.978 169.501 359.386 162.502 354.495L161.945 323.061C168.998 303.558 213.967 333.723 213.967 333.723C214.43 323.637 214.607 304.007 214.607 304.007C191.971 284.181 161.467 286.667 161.467 286.667L161.967 189.259C160.853 177.668 170.995 176.909 170.995 176.909C164.442 172.033 161.967 161.635 161.967 161.635V117.106C165.483 117.622 169.971 118.59 174.881 120.474C181.133 122.874 183.638 125.877 186.739 128.24C186.778 131.787 187.042 157.818 187.151 182.866C187.193 192.57 187.211 202.124 187.183 210.168L187.258 270.739L189.385 270.745C208.28 272.159 216.06 284.498 216.742 285.504ZM95.9079 386.343V256.985C95.9079 244.442 110.687 235.293 110.995 235.102C110.801 235.16 104.546 237.052 95.9079 240.517C87.6493 243.829 80.8812 248.961 76.5691 252.783C75.3935 253.824 74.4001 254.767 73.6101 255.551C72.185 256.962 71.416 257.852 71.416 257.852V401.296C59.2942 392.085 48.6552 393.709 48.6552 393.709V303.787C48.6552 292.413 60.4071 289.487 60.4071 289.487C48.7797 288.404 48.6552 283.745 48.6552 283.745V258.61C54.2472 249.33 61.5697 241.739 68.7996 235.763C69.7948 234.94 70.7877 234.148 71.773 233.388C84.7082 223.4 96.5264 218.633 96.5264 218.633C96.5264 218.633 97.7634 181.689 96.5264 178.655C95.2894 175.622 103.949 168.905 103.949 168.905C96.2801 164.679 96.2801 159.479 96.2801 159.479V137.377C107.894 127.358 97.3921 112.893 97.3921 112.893C103.7 136.512 68.199 131.419 79.2227 116.467C90.246 101.517 90.3414 72.6989 90.3414 72.6989C88.4859 80.9324 68.0763 92.6324 68.0763 92.6324C38.8442 107.568 39.2736 120.15 41.2039 125.376C42.294 125.052 43.4634 124.876 44.6792 124.876C50.6575 124.876 55.5021 129.121 55.5021 134.356C55.5021 138.112 53.0084 141.359 49.3914 142.892C49.3722 142.901 49.3543 142.909 49.335 142.916C48.4259 143.295 47.4468 143.568 46.4199 143.712L46.428 143.745C36.8611 145.13 27.3104 132.527 27.3104 132.527C26.4447 149.32 35.7903 155.47 35.7903 155.47C11.2981 156.338 23.0649 129.654 23.0649 129.654C-1.79724 148.506 16.9894 164.246 16.9894 164.246C16.9894 164.246 18.4736 218.091 16.9894 226.108C15.5053 234.125 4 235.967 4 235.967C12.9068 238.567 16.9894 255.36 16.9894 255.36V333.474C14.391 343.549 4.78392 346.004 4.78392 346.004C12.7842 348.099 16.9894 357.56 16.9894 357.56V412.13C16.9894 412.13 37.2763 393.168 66.9634 429.464C96.6491 465.756 122.875 464.999 122.875 464.999C104.035 453.568 117.013 417.123 117.13 416.794C114.667 420.093 110.413 422.27 105.58 422.27C97.9623 422.27 91.7871 416.861 91.7871 410.192C91.7871 403.52 98.0729 396.977 105.58 398.11C103.994 397.122 101.804 395.518 99.7837 393.113C97.6093 390.524 96.4951 388.033 95.9079 386.343ZM71.416 163.595V206.39C71.416 206.39 68.934 205.704 65.1822 206.738C64.2099 207.007 63.1534 207.39 62.0333 207.932C58.0652 209.847 53.295 213.734 48.6552 221.45V179.738C48.6552 179.738 50.3575 176.69 53.5964 173.232L56.2563 170.652C60.0192 167.345 65.1191 164.25 71.416 163.595Z" fill="#080633" fill-opacity="0.09" shape-rendering="crispEdges"/>
<path d="M358.218 393.113C356.198 395.518 354.008 397.122 352.421 398.11C359.929 396.977 366.215 403.52 366.215 410.192C366.215 416.861 360.039 422.27 352.421 422.27C347.588 422.27 343.334 420.093 340.871 416.794C340.99 417.123 353.967 453.568 335.127 464.999C335.127 464.999 361.352 465.756 391.038 429.464C420.725 393.168 441.012 412.13 441.012 412.13V357.56C441.012 357.56 445.217 348.099 453.216 346.004C453.216 346.004 443.611 343.549 441.012 333.474V255.36C441.012 255.36 445.095 238.567 454 235.967C454 235.967 442.496 234.125 441.012 226.108C439.528 218.091 441.012 164.246 441.012 164.246C441.012 164.246 459.8 148.506 434.937 129.654C434.937 129.654 446.703 156.338 422.211 155.47C422.211 155.47 431.557 149.32 430.691 132.527C430.691 132.527 421.14 145.13 411.573 143.745L411.582 143.712C410.555 143.568 409.576 143.295 408.666 142.916C408.647 142.909 408.629 142.901 408.61 142.892C404.992 141.359 402.499 138.112 402.499 134.356C402.499 129.121 407.344 124.876 413.322 124.876C414.539 124.876 415.707 125.052 416.797 125.376C418.728 120.15 419.157 107.568 389.925 92.6324C389.925 92.6324 369.515 80.9324 367.66 72.6989C367.66 72.6989 367.755 101.517 378.779 116.467C389.802 131.419 354.301 136.512 360.609 112.893C360.609 112.893 350.107 127.358 361.722 137.377V159.479C361.722 159.479 361.722 164.679 354.053 168.905C354.053 168.905 362.712 175.622 361.475 178.655C360.238 181.689 361.475 218.633 361.475 218.633C361.475 218.633 373.293 223.4 386.228 233.388C387.214 234.148 388.207 234.94 389.202 235.763C396.432 241.739 403.753 249.33 409.346 258.61V283.745C409.346 283.745 409.222 288.404 397.594 289.487C397.594 289.487 409.346 292.413 409.346 303.787V393.709C409.346 393.709 398.707 392.085 386.585 401.296V257.852C386.585 257.852 385.817 256.962 384.39 255.551C383.601 254.767 382.608 253.824 381.432 252.783C377.12 248.961 370.352 243.829 362.093 240.517C353.455 237.052 347.2 235.16 347.007 235.102C347.315 235.293 362.093 244.442 362.093 256.985V386.343C361.506 388.033 360.392 390.524 358.218 393.113ZM401.745 170.652L404.405 173.232C407.644 176.69 409.346 179.738 409.346 179.738V221.45C404.706 213.734 399.936 209.847 395.968 207.932C394.847 207.39 393.791 207.007 392.819 206.738C389.067 205.704 386.585 206.39 386.585 206.39V163.595C392.882 164.25 397.982 167.345 401.745 170.652ZM268.617 270.745L270.744 270.739L270.818 210.168C270.791 202.124 270.808 192.57 270.851 182.866C270.959 157.818 271.224 131.787 271.262 128.24C274.363 125.877 276.869 122.874 283.121 120.474C288.031 118.59 292.518 117.622 296.035 117.106V161.635C296.035 161.635 293.56 172.033 287.006 176.909C287.006 176.909 297.149 177.668 296.035 189.259L296.534 286.667C296.534 286.667 266.03 284.181 243.394 304.007C243.394 304.007 243.571 323.637 244.034 333.723C244.034 333.723 289.004 303.558 296.056 323.061L295.5 354.495C288.501 359.386 282.738 370.978 282.711 371.366C284.591 369.656 287.23 368.594 290.156 368.594C294.332 368.594 297.929 370.76 299.566 373.88C299.588 373.884 299.596 373.886 299.596 373.886C305.509 381.032 285.077 414.107 284.904 414.389C285.246 414.268 331.739 397.577 325.824 360.447C330.09 360.447 332.318 357.955 333.476 355.465C334.637 352.972 334.731 350.48 334.731 350.48C325.7 351.671 325.824 343.979 325.824 343.979V321.661C325.824 319.818 326.443 222.206 325.824 210.938C325.206 199.672 337.074 195.227 337.074 195.227C327.67 192.519 325.824 181.361 325.824 181.361V80.3884C325.824 80.3884 347.842 61.3194 330.278 40.0843C330.278 40.0843 330.402 57.0955 317.412 56.8766C304.423 56.6601 297.125 43.3362 312.092 34.2341C312.092 34.2341 304.299 22.3177 282.654 18.9591C261.007 15.5989 259.521 0 259.521 0C259.521 0 260.006 29.1282 278.213 33.5355L278.219 33.5371C280.886 34.0153 282.895 36.0825 282.895 38.5608C282.895 41.3941 280.272 43.6892 277.039 43.6892C274.591 43.6892 272.163 42.8517 270.689 40.9473C270.576 41.1623 269.786 42.7172 270.689 44.3117C271.268 45.3355 272.609 45.6254 272.609 45.9937C272.609 47.6758 278.37 51.0398 278.37 51.0398C279 51.3634 279.536 51.7145 279.992 52.0961C286.268 56.1439 290.339 62.6613 290.339 70.0119C290.339 82.2948 278.97 92.2527 264.946 92.2527C259.445 92.2527 254.703 90.3836 250.192 88.1132C250.223 87.9539 244.248 85.1508 242.967 84.2161L243.014 185.585C243.338 186.891 247.875 190.187 251.076 192.242C254.18 194.236 258.974 195.979 260.411 196.41C260.411 196.41 243.217 200.881 243.217 214.857C243.217 230.369 241.224 285.504 241.26 285.504C241.941 284.498 249.721 272.159 268.617 270.745ZM216.742 285.504C216.777 285.504 214.784 230.369 214.784 214.857C214.784 200.881 197.59 196.41 197.59 196.41C199.028 195.979 203.821 194.236 206.926 192.242C210.126 190.187 214.663 186.891 214.987 185.585L215.034 84.2161C213.754 85.1508 207.779 87.9539 207.809 88.1132C203.298 90.3836 198.556 92.2527 193.056 92.2527C179.031 92.2527 167.662 82.2948 167.662 70.0119C167.662 62.6613 171.733 56.1439 178.009 52.0961C178.466 51.7145 179.001 51.3634 179.631 51.0398C179.631 51.0398 185.392 47.6758 185.392 45.9937C185.392 45.6254 186.732 45.3355 187.313 44.3117C188.215 42.7172 187.426 41.1623 187.313 40.9473C185.839 42.8517 183.41 43.6892 180.962 43.6892C177.729 43.6892 175.107 41.3941 175.107 38.5608C175.107 36.0825 177.115 34.0153 179.782 33.5371L179.789 33.5355C197.995 29.1282 198.479 0 198.479 0C198.479 0 196.994 15.5989 175.348 18.9591C153.702 22.3177 145.909 34.2341 145.909 34.2341C160.876 43.3362 153.578 56.6601 140.589 56.8766C127.601 57.0955 127.724 40.0843 127.724 40.0843C110.16 61.3194 132.178 80.3884 132.178 80.3884V181.361C132.178 181.361 130.332 192.519 120.928 195.227C120.928 195.227 132.796 199.672 132.178 210.938C131.558 222.206 132.178 319.818 132.178 321.661V343.979C132.178 343.979 132.301 351.671 123.271 350.48C123.271 350.48 123.364 352.972 124.525 355.465C125.684 357.955 127.911 360.447 132.178 360.447C126.262 397.577 172.755 414.268 173.097 414.389C172.924 414.107 152.492 381.032 158.406 373.886C158.406 373.886 158.414 373.884 158.435 373.88C160.072 370.76 163.67 368.594 167.845 368.594C170.771 368.594 173.411 369.656 175.291 371.366C175.263 370.978 169.501 359.386 162.502 354.495L161.945 323.061C168.998 303.558 213.967 333.723 213.967 333.723C214.43 323.637 214.607 304.007 214.607 304.007C191.971 284.181 161.467 286.667 161.467 286.667L161.967 189.259C160.853 177.668 170.995 176.909 170.995 176.909C164.442 172.033 161.967 161.635 161.967 161.635V117.106C165.483 117.622 169.971 118.59 174.881 120.474C181.133 122.874 183.638 125.877 186.739 128.24C186.778 131.787 187.042 157.818 187.151 182.866C187.193 192.57 187.211 202.124 187.183 210.168L187.258 270.739L189.385 270.745C208.28 272.159 216.06 284.498 216.742 285.504ZM95.9079 386.343V256.985C95.9079 244.442 110.687 235.293 110.995 235.102C110.801 235.16 104.546 237.052 95.9079 240.517C87.6493 243.829 80.8812 248.961 76.5691 252.783C75.3935 253.824 74.4001 254.767 73.6101 255.551C72.185 256.962 71.416 257.852 71.416 257.852V401.296C59.2942 392.085 48.6552 393.709 48.6552 393.709V303.787C48.6552 292.413 60.4071 289.487 60.4071 289.487C48.7797 288.404 48.6552 283.745 48.6552 283.745V258.61C54.2472 249.33 61.5697 241.739 68.7996 235.763C69.7948 234.94 70.7877 234.148 71.773 233.388C84.7082 223.4 96.5264 218.633 96.5264 218.633C96.5264 218.633 97.7634 181.689 96.5264 178.655C95.2894 175.622 103.949 168.905 103.949 168.905C96.2801 164.679 96.2801 159.479 96.2801 159.479V137.377C107.894 127.358 97.3921 112.893 97.3921 112.893C103.7 136.512 68.199 131.419 79.2227 116.467C90.246 101.517 90.3414 72.6989 90.3414 72.6989C88.4859 80.9324 68.0763 92.6324 68.0763 92.6324C38.8442 107.568 39.2736 120.15 41.2039 125.376C42.294 125.052 43.4634 124.876 44.6792 124.876C50.6575 124.876 55.5021 129.121 55.5021 134.356C55.5021 138.112 53.0084 141.359 49.3914 142.892C49.3722 142.901 49.3543 142.909 49.335 142.916C48.4259 143.295 47.4468 143.568 46.4199 143.712L46.428 143.745C36.8611 145.13 27.3104 132.527 27.3104 132.527C26.4447 149.32 35.7903 155.47 35.7903 155.47C11.2981 156.338 23.0649 129.654 23.0649 129.654C-1.79724 148.506 16.9894 164.246 16.9894 164.246C16.9894 164.246 18.4736 218.091 16.9894 226.108C15.5053 234.125 4 235.967 4 235.967C12.9068 238.567 16.9894 255.36 16.9894 255.36V333.474C14.391 343.549 4.78392 346.004 4.78392 346.004C12.7842 348.099 16.9894 357.56 16.9894 357.56V412.13C16.9894 412.13 37.2763 393.168 66.9634 429.464C96.6491 465.756 122.875 464.999 122.875 464.999C104.035 453.568 117.013 417.123 117.13 416.794C114.667 420.093 110.413 422.27 105.58 422.27C97.9623 422.27 91.7871 416.861 91.7871 410.192C91.7871 403.52 98.0729 396.977 105.58 398.11C103.994 397.122 101.804 395.518 99.7837 393.113C97.6093 390.524 96.4951 388.033 95.9079 386.343ZM71.416 163.595V206.39C71.416 206.39 68.934 205.704 65.1822 206.738C64.2099 207.007 63.1534 207.39 62.0333 207.932C58.0652 209.847 53.295 213.734 48.6552 221.45V179.738C48.6552 179.738 50.3575 176.69 53.5964 173.232L56.2563 170.652C60.0192 167.345 65.1191 164.25 71.416 163.595Z" stroke="#67D2E0" stroke-width="10" shape-rendering="crispEdges" mask="url(#path-1-inside-1_236_138)"/>
</g>
<defs>
<filter id="filter0_d_236_138" x="0" y="0" width="458" height="473" filterUnits="userSpaceOnUse" color-interpolation-filters="sRGB">
<feFlood flood-opacity="0" result="BackgroundImageFix"/>
<feColorMatrix in="SourceAlpha" type="matrix" values="0 0 0 0 0 0 0 0 0 0 0 0 0 0 0 0 0 0 127 0" result="hardAlpha"/>
<feOffset dy="4"/>
<feGaussianBlur stdDeviation="2"/>
<feComposite in2="hardAlpha" operator="out"/>
<feColorMatrix type="matrix" values="0 0 0 0 0 0 0 0 0 0 0 0 0 0 0 0 0 0 0.25 0"/>
<feBlend mode="normal" in2="BackgroundImageFix" result="effect1_dropShadow_236_138"/>
<feBlend mode="normal" in="SourceGraphic" in2="effect1_dropShadow_236_138" result="shape"/>
</filter>
</defs>
</svg>
